<svg width="24" height="24" viewBox="0 0 24 24" fill="none" xmlns="http://www.w3.org/2000/svg">
<path d="M15.9867 11.6504C13.7862 9.97624 11.6792 8.43707 9.52539 6.83008V16.4435C11.7918 14.6895 14.1807 13.0831 15.996 11.6504H15.9867Z" fill="white"/>
<path d="M15.9867 11.6504C13.7862 9.97625 9.52539 6.83008 9.52539 6.83008L15.2061 12.266C15.2066 12.266 14.1713 13.0831 15.9867 11.6504Z" fill="#E8E0E0"/>
<path d="M9.93969 23.9684C5.369 23.8486 3.80789 23.7408 2.84834 23.4594C2.19913 23.2724 1.63498 22.8572 1.22132 22.2549C0.90162 21.7991 0.647372 21.1037 0.450118 20.1389C0.280916 19.3351 0.215016 18.6663 0.121064 17.0326C-0.0227579 13.3457 -0.0570436 10.3314 0.121064 6.96338C0.268003 5.10344 0.339245 2.89548 1.31527 1.60734C1.77613 1.00448 2.31223 0.616518 2.91424 0.456135C3.85464 0.201931 7.86117 0.000976562 12.0089 0.000976562C16.1472 0.000976562 20.1626 0.201931 21.1039 0.456135C21.856 0.65709 22.5613 1.25932 22.9754 2.03588C23.8659 4.03021 23.8815 6.51012 23.9719 8.44993C24.0093 9.3742 24.0093 14.6225 23.9719 15.5467C23.8312 18.6124 23.7181 19.697 23.3984 20.8216C23.2007 21.5316 23.0319 21.9063 22.7398 22.3215C22.2817 22.9605 21.6977 23.3855 21.0656 23.5399C17.1103 23.9634 13.7516 24.0553 9.93969 23.9684ZM15.9967 11.65C13.7962 9.97579 11.6891 8.42331 9.53538 6.81631V16.4304C11.8018 14.6763 14.1911 13.0693 16.006 11.6367L15.9967 11.65Z" fill="#CD201F"/>
</svg>
